<?xml version="1.0" encoding="UTF-8"?>
<svg xmlns="http://www.w3.org/2000/svg" xmlns:xlink="http://www.w3.org/1999/xlink" width="296px" height="303px" viewBox="0 0 167 170" version="1.1">
<g id="surface1">
<path style=" stroke:none;fill-rule:nonzero;fill:rgb(0%,0%,0%);fill-opacity:1;" d="M 105.050781 0.972656 C 98.519531 3.441406 92.210938 11.074219 89.28125 20.128906 C 87.027344 27.085938 86.503906 39.882812 88.15625 47.289062 C 93.261719 70.109375 111.132812 79.238281 123.824219 65.472656 C 130.355469 58.4375 133.660156 48.636719 133.660156 36.214844 C 133.660156 20.949219 128.027344 7.855469 119.09375 2.617188 C 115.1875 0.375 108.804688 -0.375 105.050781 0.972656 Z M 105.050781 0.972656 "/>
<path style=" stroke:none;fill-rule:nonzero;fill:rgb(0%,0%,0%);fill-opacity:1;" d="M 47.984375 2.84375 C 33.113281 10.550781 27.558594 38.683594 37.167969 58.0625 C 44.902344 73.777344 59.171875 77.144531 69.457031 65.695312 C 75.992188 58.4375 79.144531 49.085938 79.144531 36.664062 C 79.144531 24.242188 75.839844 14.367188 69.457031 7.558594 C 62.773438 0.449219 55.566406 -1.121094 47.984375 2.84375 Z M 47.984375 2.84375 "/>
<path style=" stroke:none;fill-rule:nonzero;fill:rgb(0%,0%,0%);fill-opacity:1;" d="M 9.160156 54.695312 C 3.378906 57.613281 0.601562 63.527344 0.527344 72.953125 C 0.375 95.027344 19.671875 114.707031 33.488281 106.625 C 37.996094 104.003906 40.699219 98.320312 41.148438 90.613281 C 42.351562 69.210938 23.203125 47.589844 9.160156 54.695312 Z M 9.160156 54.695312 "/>
<path style=" stroke:none;fill-rule:nonzero;fill:rgb(0%,0%,0%);fill-opacity:1;" d="M 145.675781 54.398438 C 140.945312 56.117188 133.058594 64.125 130.054688 70.335938 C 122.773438 85.222656 124.273438 101.386719 133.285156 106.699219 C 151.230469 117.097656 174.132812 82.457031 163.621094 60.832031 C 160.542969 54.398438 153.035156 51.703125 145.675781 54.398438 Z M 145.675781 54.398438 "/>
<path style=" stroke:none;fill-rule:nonzero;fill:rgb(0%,0%,0%);fill-opacity:1;" d="M 75.316406 88.589844 C 64.125 92.183594 52.636719 104.378906 38.898438 127.199219 C 28.382812 144.558594 26.882812 148.898438 28.535156 156.832031 C 29.285156 160.347656 30.109375 161.84375 32.589844 164.3125 C 35.96875 167.753906 38.972656 168.878906 46.554688 169.550781 C 53.089844 170.148438 58.644531 168.953125 67.730469 164.835938 C 81.246094 158.777344 90.785156 159.074219 106.550781 166.183594 C 115.488281 170.222656 126.226562 170.75 133.660156 167.53125 C 140.492188 164.539062 144.097656 159.074219 144.171875 151.816406 C 144.171875 145.605469 142.371094 140.667969 137.339844 133.410156 C 134.785156 129.820312 130.582031 123.460938 127.804688 119.34375 C 114.8125 99.515625 108.128906 92.707031 98.894531 89.863281 C 92.585938 87.992188 79.519531 87.246094 75.316406 88.589844 Z M 75.316406 88.589844 "/>
</g>
</svg>
