<?xml version="1.0" encoding="iso-8859-1"?>
<!-- Uploaded to: SVG Repo, www.svgrepo.com, Generator: SVG Repo Mixer Tools -->
<!DOCTYPE svg PUBLIC "-//W3C//DTD SVG 1.1//EN" "http://www.w3.org/Graphics/SVG/1.1/DTD/svg11.dtd">
<svg fill="#000000" version="1.1" id="Capa_1" xmlns="http://www.w3.org/2000/svg" xmlns:xlink="http://www.w3.org/1999/xlink" 
	 width="50px" height="50px" viewBox="0 0 194.085 194.085"
	 xml:space="preserve">
<g>
	<path d="M97.043,11.088L0,67.113v115.884h194.085V67.113L97.043,11.088z M18.158,158.136c12.336-0.006,25.597-0.556,39.729-1.679
		c0,0-0.06,3.984,1.998,8.394H18.146L18.158,158.136L18.158,158.136z M70.961,154.577c0,0,4.008,0.468,7.602-5.213
		c0,0,3.372-2.122,5.068,0.721c0,0-0.207,3.547-3.378,4.492c0,0-1.889,5.828,2.627,10.262H71.331
		C69.667,162.651,64.492,155.181,70.961,154.577z M175.928,164.839h-90.06c2.021-1.549,5.086-5.143,5.781-13.099
		c0,0,2.32-8.996-5.92-11.585c-0.307-0.106-0.452-0.142-0.712-0.236c1.088-2.151,9.682-19.611,8.11-33.337
		c0,0,12.652,5.202,9.067-10.166c0,0-6.966-12.531-0.213-16.072c0,0,13.09,2.595,20.892-7.802c0,0,8.016-8.529,3.795-10.412
		l-19.411-2.837c0,0-19.201-15.356-28.693,3.322c-1.735,3.413-1.895,11.325-1.895,11.325c1.049,1.167,4.891,41.254-58.517,46.616
		V77.584l78.885-45.527l78.886,45.527L175.928,164.839L175.928,164.839z"/>
</g>
</svg>