<?xml version="1.0" standalone="no"?>
<!DOCTYPE svg PUBLIC "-//W3C//DTD SVG 20010904//EN"
 "http://www.w3.org/TR/2001/REC-SVG-20010904/DTD/svg10.dtd">
<svg version="1.0" xmlns="http://www.w3.org/2000/svg"
 width="335.000000pt" height="150.000000pt" viewBox="0 0 335.000000 150.000000"
 preserveAspectRatio="xMidYMid meet">

<g transform="translate(0.000000,150.000000) scale(0.100000,-0.100000)"
fill="#000000" stroke="none">
<path d="M1277 1489 c-59 -14 -91 -34 -140 -89 -72 -79 -107 -193 -107 -342
l0 -78 -40 20 c-53 27 -74 60 -67 109 2 21 0 45 -5 54 -13 25 -45 21 -64 -7
-14 -23 -14 -28 4 -69 22 -49 64 -86 133 -115 l45 -20 12 -75 c17 -112 43
-181 68 -185 40 -6 43 17 18 113 -35 135 -35 135 29 135 103 0 221 42 295 105
153 132 115 399 -64 444 -49 13 -64 13 -117 0z m133 -37 c69 -49 95 -197 53
-293 -46 -104 -136 -169 -262 -190 -101 -17 -101 -17 -101 99 0 107 17 188 55
267 58 121 175 174 255 117z"/>
<path d="M321 1404 c-56 -71 12 -204 103 -204 33 0 66 43 66 87 0 107 -115
186 -169 117z"/>
<path d="M107 1292 c-24 -26 -31 -75 -17 -116 15 -46 72 -96 110 -96 59 0 91
91 55 160 -33 64 -112 92 -148 52z"/>
<path d="M550 1270 c-48 -48 1 -160 69 -160 32 0 61 30 61 63 0 34 -32 88 -61
102 -37 20 -45 19 -69 -5z"/>
<path d="M2560 1181 c-31 -16 -49 -36 -86 -97 -12 -19 -13 -18 -50 1 -20 11
-41 28 -46 38 -4 9 -12 25 -17 35 -5 10 -19 17 -37 17 -41 0 -43 -32 -4 -73
27 -29 30 -38 30 -97 0 -74 -17 -125 -50 -148 -44 -31 -78 11 -100 118 -18 93
-20 96 -43 93 -15 -2 -28 -21 -49 -73 -16 -38 -40 -81 -54 -95 -25 -24 -25
-25 -40 -6 -16 23 -19 128 -5 190 12 51 5 68 -28 64 -22 -3 -27 -9 -34 -53 -5
-27 -22 -78 -38 -112 -48 -102 -72 -82 -92 75 -12 93 -14 97 -36 94 -13 -1
-32 5 -42 14 -21 18 -77 21 -107 5 -79 -42 -127 -213 -87 -308 26 -61 75 -81
123 -47 26 18 65 90 82 154 l13 45 12 -57 c24 -121 83 -129 141 -18 18 34 19
34 21 10 12 -94 32 -130 74 -130 31 0 73 51 99 121 l23 61 22 -76 c22 -76 51
-120 86 -131 30 -10 84 23 107 64 23 41 44 156 35 192 -5 19 -3 21 13 15 10
-4 34 -10 52 -13 18 -3 32 -12 32 -20 0 -8 22 -36 48 -62 l48 -48 -33 -21
c-40 -27 -53 -67 -29 -90 25 -25 118 -22 153 5 37 27 41 68 11 100 -16 18 -19
27 -10 30 28 10 133 86 152 110 35 45 22 49 -22 6 -47 -45 -134 -103 -155
-103 -8 0 -34 20 -58 45 -38 37 -45 51 -45 83 0 43 26 78 65 88 49 12 81 -22
51 -55 -27 -30 -15 -61 24 -61 19 0 40 34 40 65 0 67 -85 97 -160 56z m-834
-47 c47 -71 -26 -295 -92 -282 -64 12 -51 211 18 285 28 30 54 29 74 -3z m909
-275 c0 -31 -45 -55 -75 -39 -28 15 -25 45 7 69 23 19 29 20 47 7 12 -7 21
-24 21 -37z"/>
<path d="M345 1091 c-76 -35 -125 -111 -125 -193 0 -61 7 -69 52 -54 20 7 58
26 84 41 l49 28 -41 14 c-53 18 -86 49 -82 76 4 28 37 33 76 13 l29 -15 16 39
c17 44 40 59 62 40 19 -16 19 -61 0 -107 l-15 -36 40 7 c43 7 130 45 130 57 0
4 -11 21 -25 37 -57 68 -168 91 -250 53z"/>
<path d="M426 1048 c-9 -12 -16 -35 -16 -50 0 -33 -1 -33 -42 -8 -39 24 -68
26 -68 5 0 -20 58 -55 93 -55 20 0 32 8 47 33 34 55 21 125 -14 75z"/>
<path d="M20 1041 c-21 -41 -12 -91 24 -127 38 -38 65 -43 89 -16 32 36 12
128 -32 152 -31 16 -69 12 -81 -9z"/>
<path d="M578 954 c-27 -13 -69 -27 -95 -31 -32 -4 -64 -18 -95 -40 -26 -18
-68 -41 -93 -50 -44 -15 -45 -16 -29 -34 9 -11 30 -19 46 -19 31 0 54 20 80
69 23 42 59 54 139 46 76 -8 99 5 99 56 0 16 -1 29 -2 29 -2 -1 -24 -12 -50
-26z"/>
<path d="M1412 746 c-145 -69 -252 -277 -239 -462 7 -96 38 -164 98 -218 139
-125 328 -60 474 162 l28 43 19 -60 c38 -124 130 -138 207 -30 l28 38 12 -40
c16 -54 43 -79 84 -79 54 0 108 75 132 180 l8 35 11 -55 c17 -78 31 -100 66
-100 30 0 58 29 82 86 12 29 12 29 17 -22 8 -67 33 -104 70 -104 37 0 69 37
101 116 l24 58 23 -75 c12 -42 34 -88 48 -104 22 -23 32 -27 62 -22 19 4 44
13 53 22 33 30 61 113 63 186 2 57 5 68 17 63 8 -4 28 -9 43 -12 17 -3 33 -15
42 -31 7 -15 31 -43 53 -63 l39 -35 -39 -32 c-21 -18 -38 -41 -38 -51 0 -32
44 -53 96 -47 87 9 131 72 84 122 l-21 22 47 28 c60 35 134 103 134 122 0 9
-24 -7 -59 -38 -32 -30 -78 -65 -101 -77 l-42 -24 -49 51 c-56 58 -64 99 -29
144 26 33 76 45 98 23 15 -15 15 -19 -2 -47 -22 -37 -15 -59 18 -59 33 0 60
40 51 72 -17 56 -74 80 -139 58 -37 -12 -90 -64 -101 -99 -14 -45 -83 -16
-113 47 -18 39 -44 51 -67 32 -22 -18 -18 -38 12 -66 63 -58 38 -251 -34 -262
-32 -5 -60 41 -79 126 -27 125 -51 131 -94 23 -25 -66 -56 -111 -75 -111 -34
0 -45 85 -25 190 11 58 2 80 -31 80 -13 0 -20 -10 -24 -37 -13 -79 -70 -203
-94 -203 -16 0 -31 52 -41 138 -5 48 -10 91 -10 95 0 5 -10 7 -23 5 -12 -1
-33 5 -47 15 -70 49 -160 -9 -195 -126 -34 -112 -82 -177 -132 -177 -28 0 -35
6 -51 37 -11 21 -22 59 -26 84 -6 44 -4 52 39 118 62 96 93 168 107 251 10 60
10 71 -5 94 -26 39 -71 35 -113 -10 -51 -54 -94 -217 -94 -359 0 -73 -33 -136
-113 -218 -153 -157 -334 -137 -395 42 -63 181 33 458 182 530 57 28 124 27
167 -2 60 -40 65 -113 10 -141 -38 -20 -47 -56 -21 -78 24 -20 51 -14 82 19
32 34 33 128 2 169 -40 54 -70 68 -147 72 -60 2 -81 -1 -125 -22z m544 -31
c14 -56 -53 -249 -111 -320 -15 -19 -16 -16 -10 45 9 94 42 231 65 268 24 38
47 41 56 7z m285 -313 c12 -42 -7 -134 -42 -204 -56 -110 -126 -35 -100 108
27 142 111 200 142 96z m883 -218 c22 -22 20 -51 -5 -64 -27 -15 -59 -9 -73
12 -8 13 -5 23 14 43 27 29 42 31 64 9z"/>
<path d="M447 454 c-10 -10 -8 -175 3 -258 16 -131 55 -126 101 12 43 131 78
208 88 196 5 -5 16 -45 26 -89 32 -150 72 -199 131 -160 28 18 71 102 79 156
4 26 -2 17 -29 -39 -57 -118 -80 -110 -116 41 -26 109 -42 137 -74 137 -31 0
-57 -41 -107 -169 -44 -113 -48 -108 -52 64 -2 102 -3 110 -22 113 -12 2 -24
0 -28 -4z"/>
</g>
</svg>
