<?xml version="1.0" encoding="UTF-8"?>
<svg xmlns="http://www.w3.org/2000/svg" xmlns:xlink="http://www.w3.org/1999/xlink" width="60pt" height="180pt" viewBox="0 0 935 492" version="1.1">
<g id="surface1">
<path style=" stroke:none;fill-rule:nonzero;fill:rgb(0%,0%,0%);fill-opacity:1;" d="M 662.898438 0 C 617.421875 6.988281 578.25 29.175781 541.378906 50.992188 C 496.492188 51.449219 451.339844 43.304688 406.933594 55.253906 C 370.902344 51.789062 352.53125 110.355469 326.292969 70.761719 C 297.359375 49.222656 273.453125 25.363281 239.714844 34.082031 C 200.316406 23.597656 163.457031 51.933594 126.703125 63.335938 C 78.878906 83.078125 44.734375 123.988281 21.929688 169.195312 C -3.28125 202.632812 -5.019531 247.765625 7.925781 284.121094 C 22.273438 324.417969 54.265625 367.820312 100.457031 373.035156 C 131.355469 387.035156 181.148438 374.433594 203.613281 394.800781 C 206.691406 362.453125 248.816406 355.574219 241.753906 317.613281 C 250.542969 277.273438 207.53125 230.34375 246.683594 196.652344 C 267.152344 177.71875 289.960938 138.363281 246.050781 136.890625 C 220.765625 132.433594 204.328125 151.726562 197.628906 170.121094 C 185.300781 203.992188 205.742188 242.164062 226.578125 274.304688 C 228.996094 300.335938 222.488281 332.097656 202.496094 348.9375 C 177.160156 370.277344 135.8125 367.5 104.113281 362.9375 C 64.335938 357.40625 41.394531 321.546875 28.8125 288.59375 C 14.757812 251.785156 7.980469 207.230469 36.175781 170.621094 C 53.710938 132.382812 73.523438 90.175781 119.273438 85.710938 C 138.246094 82.652344 155.78125 72.03125 126.894531 81.242188 C 93.425781 95.441406 109.59375 65.140625 132.441406 65.410156 C 165.855469 64.738281 191.714844 38.527344 224.085938 43.066406 C 263.65625 46.496094 306.132812 64.496094 327.226562 98.574219 C 343.289062 84.328125 354.019531 103.105469 370.410156 84.070312 C 408.003906 62.652344 452.21875 64.933594 493.660156 58.539062 C 507.910156 57.53125 522.335938 58.222656 535.597656 63.273438 C 555.4375 53.027344 576.328125 38.011719 598.121094 30.679688 C 621.597656 22.78125 645.820312 22.65625 662.074219 13.902344 C 676.964844 10.441406 683.132812 15.164062 672.566406 22.78125 C 706.179688 14.582031 740.761719 25.289062 763.78125 49.332031 C 791.484375 67.914062 817.316406 86.484375 840.992188 108.75 C 852.757812 135.496094 882.234375 144.71875 884.742188 180.308594 C 900.238281 163.921875 887.757812 224.523438 889.289062 233.503906 C 891.316406 218.683594 908.714844 179.441406 913.21875 214.664062 C 925.699219 231.777344 910.363281 288.875 909.667969 239.914062 C 905.101562 232.867188 913.277344 301.621094 877.925781 294.367188 C 843.675781 297.03125 894.289062 307.867188 861.464844 313.382812 C 846.1875 313.609375 830.144531 311.300781 830.125 324.839844 C 797.535156 331.222656 756.097656 311.75 744.835938 279.796875 C 734.953125 237.46875 738.207031 192.824219 724.394531 151.039062 C 719.8125 119.140625 692.40625 84.265625 658.171875 105.617188 C 627.222656 106.039062 601.03125 132.78125 641.640625 146.804688 C 675.753906 176.914062 695.457031 218.785156 717.949219 257.441406 C 718.671875 298.140625 799.921875 321.398438 762.726562 361.714844 C 753.019531 382.730469 753.597656 348.230469 748.179688 371.578125 C 726.675781 401.464844 695.058594 423.5 666.265625 445.71875 C 649.996094 451.671875 588.136719 479.011719 634.789062 469.0625 C 689.328125 451.558594 745.570312 421.523438 771.644531 367.84375 C 802.261719 331.207031 863.800781 354.609375 892.324219 311.5 C 923.519531 283.003906 948.527344 236.617188 925.953125 195.664062 C 879.253906 95.523438 761.667969 1.734375 662.898438 0 Z M 690.644531 10.492188 C 715.128906 19 664.996094 15.363281 690.101562 10.554688 Z M 264.773438 40.894531 C 288.773438 43.332031 328.871094 75.503906 326.269531 84.480469 C 311.292969 63.042969 281.183594 59.320312 264.773438 40.894531 Z M 676.058594 113.828125 C 710.179688 124.859375 720.523438 168.601562 719.15625 201.003906 C 717.394531 245.628906 699.40625 176.109375 681.070312 169.371094 C 666.214844 152.4375 633.238281 118.304688 676.058594 113.828125 Z M 232.578125 148.296875 C 267.199219 154.699219 247.496094 176.816406 229.421875 196.683594 C 220.140625 206.882812 221.742188 227.765625 214.652344 230.609375 C 212.109375 222.207031 198.308594 188.894531 201.222656 178.171875 C 204.921875 164.542969 220.707031 152.042969 232.578125 148.296875 Z M 546.957031 198.410156 C 517.1875 198.59375 534.179688 239.523438 530 238.144531 C 532.585938 267.074219 595.625 249.160156 571.070312 214.3125 C 566.46875 205.417969 557.3125 198.320312 546.957031 198.410156 Z M 392.742188 199.890625 C 359.507812 209.308594 366.464844 282.058594 405.949219 257.613281 C 426.804688 242.339844 418.640625 204.304688 392.742188 199.890625 Z M 548.359375 211.4375 C 573.703125 226.4375 539.265625 232.136719 548.359375 211.4375 Z M 396.214844 218.929688 C 421.242188 225.554688 394.40625 248.582031 396.214844 218.929688 Z M 536.179688 240.214844 C 563.234375 241.308594 538.660156 250.773438 536.179688 240.214844 Z M 880.429688 298.363281 C 888.378906 300.558594 873.398438 303.269531 880.429688 298.363281 Z M 872.527344 314.511719 C 866.386719 329.609375 850.125 318.414062 872.527344 314.511719 Z M 518.832031 328.824219 C 499.269531 341.253906 423.128906 331.765625 456.988281 365.714844 C 476.273438 385.171875 560.078125 345.332031 518.832031 328.824219 Z M 211.414062 386.675781 C 234.683594 434.535156 280.113281 455.320312 321.992188 460.285156 C 366.261719 466.167969 407.933594 486.175781 453.164062 485.1875 C 472.253906 491.75 469.820312 497.457031 484.980469 484.003906 C 512.972656 487.28125 549.417969 497.601562 579.667969 485.398438 C 597.679688 485.644531 609.421875 473.828125 601.277344 473.476562 C 620.222656 488.300781 608.59375 453.394531 634.878906 454.429688 C 640.566406 442.992188 601.785156 474.785156 590.121094 469.921875 C 573.566406 481.8125 534.824219 472.496094 505.128906 474.496094 C 513.226562 464.472656 471.039062 485.441406 488.109375 466.800781 C 459.097656 485.140625 468.960938 467.515625 437.300781 468.207031 C 400.003906 475.203125 361.339844 455.652344 325.332031 451.386719 C 286.125 437.609375 260.476562 424.703125 227.320312 397.441406 C 221.78125 394.238281 216.113281 391.085938 211.414062 386.675781 Z M 573.203125 475.273438 C 584.820312 477.316406 576.117188 473.433594 573.203125 475.273438 Z M 573.203125 475.273438 "/>
</g>
</svg>
